<svg xmlns="http://www.w3.org/2000/svg" viewBox="0 0 900 520" role="img" aria-labelledby="title desc">
  <title id="title">Red concert drum set</title>
  <desc id="desc">A full red concert drum set with chrome stands and multiple cymbals.</desc>
  <defs>
    <linearGradient id="shellRed" x1="0" x2="1" y1="0" y2="1">
      <stop offset="0" stop-color="#ff796f"/>
      <stop offset="0.5" stop-color="#c22e2e"/>
      <stop offset="1" stop-color="#681717"/>
    </linearGradient>
    <linearGradient id="metal" x1="0" x2="1">
      <stop offset="0" stop-color="#f8fbff"/>
      <stop offset="0.4" stop-color="#a8b3bd"/>
      <stop offset="1" stop-color="#57636d"/>
    </linearGradient>
    <linearGradient id="gold" x1="0" x2="1" y1="0" y2="1">
      <stop offset="0" stop-color="#fff0a8"/>
      <stop offset="0.65" stop-color="#c99725"/>
      <stop offset="1" stop-color="#7c5d18"/>
    </linearGradient>
    <radialGradient id="head" cx="48%" cy="38%" r="62%">
      <stop offset="0" stop-color="#ffffff"/>
      <stop offset="1" stop-color="#e3e6e8"/>
    </radialGradient>
    <filter id="shadow" x="-18%" y="-18%" width="136%" height="136%">
      <feDropShadow dx="0" dy="11" stdDeviation="9" flood-color="#1f0d0d" flood-opacity="0.25"/>
    </filter>
  </defs>
  <rect width="900" height="520" rx="34" fill="#f8f1ef"/>
  <ellipse cx="450" cy="454" rx="350" ry="42" fill="#d7c6c2" opacity="0.55"/>
  <g stroke="url(#metal)" stroke-width="10" stroke-linecap="round">
    <line x1="160" y1="159" x2="107" y2="420"/><line x1="160" y1="159" x2="201" y2="420"/>
    <line x1="756" y1="167" x2="704" y2="420"/><line x1="756" y1="167" x2="810" y2="420"/>
    <line x1="295" y1="210" x2="254" y2="420"/><line x1="295" y1="210" x2="330" y2="420"/>
    <line x1="620" y1="235" x2="577" y2="420"/><line x1="620" y1="235" x2="664" y2="420"/>
  </g>
  <g filter="url(#shadow)">
    <ellipse cx="160" cy="142" rx="128" ry="34" fill="url(#gold)" stroke="#493a18" stroke-width="5"/>
    <ellipse cx="756" cy="148" rx="126" ry="35" fill="url(#gold)" stroke="#493a18" stroke-width="5"/>
    <ellipse cx="295" cy="195" rx="100" ry="31" fill="url(#gold)" stroke="#493a18" stroke-width="4"/>
    <ellipse cx="620" cy="222" rx="108" ry="32" fill="url(#gold)" stroke="#493a18" stroke-width="4"/>
  </g>
  <g filter="url(#shadow)">
    <path d="M330 160 C380 122,455 126,490 171 C458 215,378 214,330 160Z" fill="url(#shellRed)" stroke="#2a1515" stroke-width="7"/>
    <ellipse cx="410" cy="159" rx="70" ry="36" fill="url(#head)" stroke="#2a1515" stroke-width="5"/>
    <path d="M470 169 C514 124,598 135,632 181 C590 222,513 217,470 169Z" fill="url(#shellRed)" stroke="#2a1515" stroke-width="7"/>
    <ellipse cx="552" cy="175" rx="73" ry="38" fill="url(#head)" stroke="#2a1515" stroke-width="5"/>
    <circle cx="462" cy="330" r="138" fill="url(#shellRed)" stroke="#2a1515" stroke-width="10"/>
    <circle cx="462" cy="330" r="101" fill="url(#head)" stroke="#2a1515" stroke-width="6"/>
    <circle cx="462" cy="330" r="45" fill="#f8f1ef" stroke="#c22e2e" stroke-width="8"/>
    <ellipse cx="260" cy="337" rx="107" ry="68" fill="url(#shellRed)" stroke="#2a1515" stroke-width="7"/>
    <ellipse cx="260" cy="315" rx="88" ry="43" fill="url(#head)" stroke="#2a1515" stroke-width="5"/>
    <ellipse cx="651" cy="342" rx="102" ry="118" fill="url(#shellRed)" stroke="#2a1515" stroke-width="7"/>
    <ellipse cx="651" cy="303" rx="87" ry="50" fill="url(#head)" stroke="#2a1515" stroke-width="5"/>
  </g>
  <g stroke="#8a5328" stroke-width="8" stroke-linecap="round">
    <line x1="407" y1="88" x2="471" y2="233"/>
    <line x1="533" y1="86" x2="488" y2="236"/>
  </g>
</svg>
